<svg xmlns="http://www.w3.org/2000/svg" viewBox="0 0 640 640"><defs><style>.cls-1{fill:#ef7a6e;}.cls-2{fill:none;}</style></defs><g id="Layer_2" data-name="Layer 2"><g id="Layer_1-2" data-name="Layer 1"><path class="cls-1" d="M274.55,536c-119.08,0-216-96.87-216-216s96.88-215.95,216-215.95a214.87,214.87,0,0,1,120.92,37,11.78,11.78,0,1,1-13.21,19.52,191.39,191.39,0,0,0-107.71-32.95c-106.08,0-192.39,86.3-192.39,192.38s86.31,192.38,192.39,192.38a192.31,192.31,0,0,0,135.51-55.83A425.1,425.1,0,0,1,380.43,412c-36.13-62.6-50.47-136.06-35.67-182.8,6.51-20.56,18.63-35.45,35.06-43.06,12.53-5.8,26.83-4.54,40.27,3.56,30.69,18.52,52.42,67.53,55.36,124.87,4.14,80.79-25.18,129.39-34.58,142.76,35.42,41.51,70.71,61.82,87,52.42,22.58-13,14-86.27-31.36-164.77a11.79,11.79,0,1,1,20.42-11.78c44.1,76.38,67.05,171.37,22.73,197C508.37,548.2,463.91,520,425,474.93A215.85,215.85,0,0,1,274.55,536ZM396.14,206.09a15,15,0,0,0-6.4,1.41c-10.42,4.82-18,14.51-22.51,28.79-12.72,40.18,1.1,107.57,33.62,163.89a402.54,402.54,0,0,0,24.54,37.59c10-16.73,29.79-58.33,26.52-122-2.89-56.26-24.83-94.33-44-105.89C403.75,207.35,399.81,206.09,396.14,206.09Z"/><circle class="cls-1" cx="541.38" cy="426.28" r="40.03"/><rect class="cls-2" width="640" height="640"/></g></g></svg>